<svg width="320" height="240" viewBox="0 0 320 240" fill="none" xmlns="http://www.w3.org/2000/svg" role="img" aria-labelledby="title desc">
  <title id="title">Imagem do produto</title>
  <desc id="desc">Placeholder neutro para itens do cardápio</desc>
  <rect width="320" height="240" rx="18" fill="#0B0B0A"/>
  <rect x="1" y="1" width="318" height="238" rx="17" stroke="#6F5722" stroke-width="2"/>
  <circle cx="150" cy="120" r="43" fill="#15120A" stroke="#D6B15A" stroke-width="5"/>
  <circle cx="150" cy="120" r="25" stroke="#6F5722" stroke-width="4"/>
  <path d="M218 73V167" stroke="#D6B15A" stroke-width="8" stroke-linecap="round"/>
  <path d="M199 75V111C199 119 204 126 212 128V167" stroke="#D6B15A" stroke-width="8" stroke-linecap="round" stroke-linejoin="round"/>
  <path d="M80 73V167" stroke="#D6B15A" stroke-width="8" stroke-linecap="round"/>
  <path d="M66 75V107" stroke="#B88E3B" stroke-width="6" stroke-linecap="round"/>
  <path d="M80 75V107" stroke="#B88E3B" stroke-width="6" stroke-linecap="round"/>
  <path d="M94 75V107" stroke="#B88E3B" stroke-width="6" stroke-linecap="round"/>
  <path d="M66 108C66 118 72 126 80 128C88 126 94 118 94 108" stroke="#B88E3B" stroke-width="6" stroke-linecap="round" stroke-linejoin="round"/>
  <path d="M110 188H210" stroke="#6F5722" stroke-width="8" stroke-linecap="round"/>
  <path d="M128 205H192" stroke="#342915" stroke-width="6" stroke-linecap="round"/>
</svg>
